<?xml version="1.0" standalone="no"?>
<!DOCTYPE svg PUBLIC "-//W3C//DTD SVG 20010904//EN"
 "http://www.w3.org/TR/2001/REC-SVG-20010904/DTD/svg10.dtd">
<svg version="1.0" xmlns="http://www.w3.org/2000/svg"
 width="56.000000pt" height="36.000000pt" viewBox="0 0 56.000000 36.000000"
 preserveAspectRatio="xMidYMid meet">
<g transform="translate(0.000000,36.000000) scale(0.100000,-0.100000)"
fill="#000000" stroke="none">
<path d="M171 312 c-84 -45 -93 -150 -19 -219 26 -24 88 -42 88 -25 0 5 -13
12 -28 15 -68 14 -110 102 -78 162 18 33 62 65 90 65 9 0 16 5 16 10 0 16 -32
12 -69 -8z"/>
<path d="M250 195 l0 -135 31 0 c47 0 89 47 89 100 0 33 -6 48 -29 71 -18 18
-27 36 -24 47 6 23 -21 52 -48 52 -18 0 -19 -8 -19 -135z m45 90 c0 -10 -6
-20 -12 -22 -8 -3 -13 5 -13 22 0 17 5 25 13 23 6 -3 12 -13 12 -23z m32 -67
c32 -30 31 -81 -2 -113 -44 -45 -55 -35 -55 55 0 68 2 80 17 80 9 0 27 -10 40
-22z"/>
</g>
</svg>
