<svg version="1.0" xmlns="http://www.w3.org/2000/svg" width="74.667" height="48" viewBox="0 0 56 36"><path d="M17.1 4.8c-8.4 4.5-9.3 15-1.9 21.9 2.6 2.4 8.8 4.2 8.8 2.5 0-.5-1.3-1.2-2.8-1.5-6.8-1.4-11-10.2-7.8-16.2 1.8-3.3 6.2-6.5 9-6.5.9 0 1.6-.5 1.6-1 0-1.6-3.2-1.2-6.9.8zM25 16.5V30h3.1c4.7 0 8.9-4.7 8.9-10 0-3.3-.6-4.8-2.9-7.1-1.8-1.8-2.7-3.6-2.4-4.7.6-2.3-2.1-5.2-4.8-5.2-1.8 0-1.9.8-1.9 13.5zm4.5-9c0 1-.6 2-1.2 2.2-.8.3-1.3-.5-1.3-2.2 0-1.7.5-2.5 1.3-2.3.6.3 1.2 1.3 1.2 2.3zm3.2 6.7c3.2 3 3.1 8.1-.2 11.3C28.1 30 27 29 27 20c0-6.8.2-8 1.7-8 .9 0 2.7 1 4 2.2z"/></svg>