<svg width="300" height="240" viewBox="0 0 300 240" fill="#7B7A79" xmlns="http://www.w3.org/2000/svg">
<path opacity="0.5" d="M118.795 82.5276C118.512 82.2703 118.28 81.9614 117.972 81.7298C113.395 78.101 108.767 74.5752 104.267 70.8177C98.4044 65.9278 91.8734 62.2219 84.8281 59.3652C77.3971 56.354 69.9147 53.4201 62.0466 51.6443C59.3468 51.0267 56.6726 50.5892 53.9214 50.7693C51.7872 50.898 49.6273 50.9237 47.4675 51.0524C37.5938 51.6186 28.3886 49.6112 19.9548 44.2066C14.0666 40.4234 8.56411 36.2027 4.21866 30.6952C2.95873 29.0995 1.95594 27.2465 1.13313 25.3935C0.310323 23.5148 0.747439 21.6361 2.21306 20.1434C3.75583 18.5992 5.76142 18.3933 7.7413 18.7536C11.6753 19.4742 15.6865 19.7831 19.3892 21.5331C21.1633 22.3567 23.0661 22.9229 24.9174 23.6435C30.2142 25.6766 35.3568 28.1216 39.9851 31.4415C44.3048 34.5298 48.2388 38.1586 51.6329 42.2764C55.0784 46.4456 59.4496 49.045 64.5664 50.7436C72.4602 53.3687 80.2512 56.2511 88.0164 59.185C90.8448 60.2402 93.4933 61.7844 96.3217 63.1484C94.676 60.1115 92.6962 58.0269 90.3563 56.3798C86.088 53.3687 81.3311 51.4384 76.3429 50.1002C69.8118 48.3501 64.1807 44.9787 59.3725 40.269C55.387 36.3828 51.3244 32.5482 47.6732 28.3532C44.0734 24.2354 40.885 19.7316 37.6195 15.305C36.6167 13.941 35.9225 12.3196 35.2025 10.7497C34.7397 9.74599 34.3797 8.66508 34.1483 7.58416C33.1455 2.84872 35.9996 -0.136666 40.7307 0.995722C43.3534 1.61339 45.9761 2.74577 48.2903 4.10979C58.0611 9.9004 67.1634 16.6947 75.6229 24.2611C82.4111 30.3349 87.5536 37.5152 90.3049 46.2912C91.3077 49.4825 92.4133 52.6738 93.519 55.8393C93.9818 57.1261 94.4189 58.4901 95.216 59.571C96.5788 61.424 98.1987 63.0969 99.7929 64.7697C100.847 65.8764 102.004 66.9316 103.187 67.9095C106.247 70.4059 109.409 72.7736 112.418 75.3215C118.255 80.2886 124.554 84.638 131.188 88.4469C132.088 88.9617 133.117 89.2962 134.582 89.9139C134.094 88.9874 133.939 88.5756 133.708 88.241C130.545 83.4027 126.123 79.8511 121.469 76.6083C117.072 73.5457 113.472 69.8397 110.798 65.2587C106.812 58.4387 103.753 51.284 102.647 43.3831C102.184 40.0631 101.49 36.7689 101.027 33.4489C100.59 30.2062 100.153 26.9634 100.024 23.6949C99.9471 21.8419 100.307 19.9117 100.873 18.136C102.03 14.6616 105.475 13.4777 108.561 15.3822C109.769 16.1543 111.004 17.055 111.904 18.136C120.286 28.1473 127.1 39.0079 129.311 52.159C130.057 56.5599 130.262 61.038 130.622 65.4903C131.034 70.6376 131.291 75.7848 131.677 80.932C131.754 81.8585 131.934 82.8879 132.397 83.6343C133.682 85.6674 135.174 87.5462 136.536 89.5278C137.771 91.3551 139.365 92.7191 141.268 93.8C143.607 95.0868 145.896 96.4251 148.159 97.8149C149.238 98.484 150.164 99.3333 151.167 100.105C150.113 97.6862 148.956 95.3442 147.284 93.4655C145.176 91.072 144.25 88.3182 143.659 85.3586C142.913 81.6269 144.25 78.5128 146.95 76.0679C148.93 74.2921 151.193 72.8251 153.378 71.3324C154.15 70.792 155.05 70.1228 156.515 70.9207C155.564 72.3876 154.638 73.7259 153.815 75.1156C151.553 78.8474 150.344 82.9652 149.753 87.2631C149.341 90.2742 149.881 93.1309 151.373 95.756C154.587 101.444 158.495 106.617 163.38 111.069C169.757 116.885 176.083 122.753 181.662 129.419C183.642 131.786 186.008 133.82 188.27 135.904C190.816 138.246 193.464 140.485 196.061 142.776C195.521 140.743 194.287 139.044 193.901 137.191C193.079 133.099 190.687 130.114 188.116 127.077C183.514 121.646 178.757 116.319 174.694 110.477C170.58 104.532 167.597 97.8921 166.157 90.7117C165.309 86.5939 164.769 82.399 164.075 78.2297C163.329 73.6487 162.635 69.0419 161.838 64.4866C161.221 60.9351 160.398 57.3835 159.858 53.8319C159.369 50.7693 159.164 47.6552 159.961 44.5927C160.989 40.6808 164.152 39.0337 167.88 40.4491C168.446 40.655 168.934 41.0153 169.449 41.3242C172.483 43.0227 174.951 45.3905 177.214 48.0156C184.362 56.2511 189.145 65.8249 192.899 75.9392C198.504 91.1235 199.713 106.565 195.136 122.29C194.467 124.58 194.133 127 193.876 129.393C193.747 130.628 194.03 131.941 194.416 133.15C194.904 134.695 195.804 136.136 196.267 137.68C197.476 141.643 199.533 145.195 202.644 147.743C207.426 151.655 212.569 155.103 217.609 158.706C221.028 161.151 224.525 163.519 227.997 165.913C231.519 168.332 235.042 170.725 238.564 173.144C238.05 171.574 237.356 170.082 236.25 168.949C233.499 166.118 230.594 163.468 227.739 160.74C226.017 159.067 224.062 157.548 222.7 155.618C220.643 152.71 218.92 149.544 217.223 146.379C213.366 139.198 210.589 131.658 210.46 123.371C210.435 122.084 210.28 120.797 210.229 119.51C209.92 110.837 209.561 102.139 209.355 93.4655C209.303 90.5573 209.432 87.5976 209.972 84.7409C210.64 81.2666 213.366 80.4945 216.066 82.8365C217.48 84.0718 218.869 85.3843 220.026 86.877C226.994 95.6788 231.879 105.587 234.965 116.371C235.17 117.091 235.427 117.786 235.685 118.584C237.459 117.966 238.873 118.558 240.081 119.613C241.316 120.669 242.55 121.749 243.578 122.985C247.898 128.183 250.855 134.231 253.992 140.151C258.44 148.618 261.243 157.574 262.529 167.071C263.172 171.78 262.812 176.258 261.5 180.788C260.729 183.439 260.42 186.167 261.269 188.921C263.866 197.233 268.366 204.337 274.614 210.359C274.768 210.513 275.077 210.539 275.617 210.719C275.359 208.943 275.128 207.348 274.897 205.752C274.614 203.796 274.254 201.84 274.099 199.884C273.765 195.329 275.951 192.215 279.833 190.053C282.096 188.818 284.256 187.428 286.493 186.141C286.904 185.909 287.393 185.858 288.319 185.601C287.65 188.998 286.776 191.803 284.822 194.299C282.867 196.796 280.965 199.369 279.448 202.149C276.568 207.399 277.134 213.601 281.71 217.694C285.156 220.782 288.293 224.205 291.481 227.576C293.718 229.944 295.878 232.389 297.935 234.911C298.964 236.198 299.735 237.716 298.167 239.44C296.11 239.569 294.387 238.668 292.973 237.253C289.296 233.547 285.619 229.815 282.096 225.955C276.131 219.444 270.911 212.263 264.251 206.395C262.786 205.083 261.166 203.95 259.649 202.664C254.943 198.675 249.827 195.483 243.733 194.068C242.01 193.682 240.364 193.579 238.693 194.274C233.011 196.59 227.045 197.877 221.003 198.906C216.272 199.704 211.566 200.45 206.758 200.296C197.347 199.987 189.067 196.41 181.456 191.108C177.162 188.123 172.894 185.06 168.626 181.998C166.183 180.248 163.843 178.395 162.275 175.692C160.398 172.449 162.018 169.67 164.435 168.563C165.977 167.843 167.674 167.251 169.346 167.122C173.974 166.762 178.628 166.299 183.231 166.556C190.585 166.942 197.964 167.688 205.266 168.666C211.746 169.541 217.763 172.012 222.957 175.975C228.665 180.35 234.013 185.189 239.464 189.899C241.007 191.211 242.601 192.215 244.581 192.73C249.801 194.068 254.609 196.281 258.62 199.961C258.98 200.296 259.469 200.528 259.88 200.785C259.649 199.884 259.212 199.215 258.698 198.572C253.838 192.318 248.567 186.476 242.704 181.174C236.585 175.641 230.285 170.365 223.291 165.938C218.509 162.901 213.906 159.556 209.381 156.133C205.524 153.225 201.641 150.419 197.167 148.515C191.716 146.224 186.085 144.86 180.145 144.757C176.391 144.706 172.791 145.375 169.551 147.434C167.572 148.695 166.132 150.342 165.797 152.71C165.515 154.666 165.386 156.648 165.206 158.603C165.129 159.401 165.077 160.225 165 161.254C164.152 160.997 163.612 160.971 163.252 160.714C160.295 158.603 158.572 153.945 160.038 150.548C163.766 141.824 168.832 138.015 178.037 139.868C178.962 140.048 179.888 140.305 180.762 140.614C183.102 141.438 185.442 142.338 187.782 143.188C190.867 144.32 193.953 145.452 197.373 146.713C191.947 141.721 186.83 137.037 181.714 132.327C179.811 130.577 178.165 128.518 176.057 127.077C171.943 124.272 167.623 121.749 163.303 119.279C162.018 118.558 160.372 117.966 158.958 118.095C156.798 118.275 154.612 118.97 152.555 119.742C150.55 120.488 148.647 121.544 146.77 122.573C136.485 128.261 125.403 130.577 113.729 130.165C107.327 129.934 100.95 129.29 94.5732 128.75C87.965 128.183 81.3568 127.849 74.7487 128.286C73.1288 128.389 71.4832 128.441 69.8633 128.286C68.3462 128.158 66.7777 127.9 65.3378 127.411C60.7352 125.867 59.321 121.646 61.9437 117.554C64.2322 113.951 67.5491 111.506 71.226 109.602C81.3568 104.403 92.1048 101.161 103.418 99.9767C111.106 99.1531 118.769 99.5135 126.071 102.241C131.445 104.249 136.614 106.797 141.885 109.087C146.05 110.889 150.138 112.896 154.432 114.363C159.575 116.139 164.692 117.786 169.089 121.08C169.783 121.595 170.606 121.93 171.377 122.341C171.506 122.161 171.609 122.007 171.737 121.827C170.991 121.029 170.297 120.205 169.526 119.459C165.566 115.676 161.581 111.867 157.569 108.109C153.481 104.275 149.341 100.517 144.482 97.7119C137.642 93.7743 130.854 89.708 123.397 87.0057C119.54 85.5902 115.863 83.6086 112.006 82.1931C107.764 80.6232 103.393 80.1599 98.8929 81.2923C93.7761 82.6048 88.9678 84.6123 84.1595 86.7483C79.0684 89.0131 73.8744 91.1492 68.629 93.028C60.1696 96.0906 51.4787 96.245 42.8135 93.9802C36.9253 92.436 31.0885 90.5573 25.3545 88.5241C23.3489 87.7778 21.2919 86.3108 19.4406 84.8439C16.7665 82.7335 16.8179 80.3915 19.2863 78.1268C19.9034 77.5606 20.5977 76.9944 21.369 76.6598C24.8917 75.0642 28.3372 73.2369 32.0141 72.0788C40.3965 69.4537 48.856 67.1374 57.3154 64.8469C59.7839 64.1778 62.3551 63.7403 64.9264 63.4829C75.0829 62.4535 84.1081 65.1558 92.1305 71.5383C96.3988 74.9355 100.77 78.0753 106.555 78.8474C110.052 79.3106 113.369 81.1122 116.789 82.296C117.406 82.5019 117.997 82.7078 118.615 82.9137C118.666 82.7593 118.743 82.6563 118.795 82.5276ZM179.759 77.0973C184.182 87.9322 186.368 99.3076 188.219 110.786C189.119 116.293 190.405 121.698 192.487 126.897C192.616 126.845 192.847 126.794 192.873 126.716C194.004 120.746 195.496 114.801 196.138 108.753C197.321 97.8663 195.444 87.2888 191.716 77.0716C188.09 67.1889 183.668 57.7181 176.854 49.5597C175.054 47.3979 172.946 45.4677 170.94 43.486C170.529 43.0742 169.989 42.7654 169.449 42.4566C164.795 39.8057 161.452 41.4528 161.118 46.7802C160.938 49.5082 161.143 52.2877 161.581 54.99C163.2 65.1043 165 75.1671 166.672 85.2814C168.317 95.2155 172.2 104.3 177.857 112.484C181.534 117.786 186.11 122.47 190.276 127.411C190.43 127.334 190.61 127.257 190.765 127.205C190.25 125.018 189.736 122.805 189.196 120.617C188.913 119.459 188.502 118.327 188.27 117.168C186.779 109.396 185.519 101.572 183.771 93.8515C181.045 81.7813 175.954 70.5861 170.683 59.4681C170.066 58.1556 169.423 56.843 168.78 55.5305C173.434 62.2476 176.7 69.6081 179.759 77.0973ZM114.732 111.017C121.752 111.017 128.514 112.768 135.354 113.926C139.673 114.672 144.019 115.11 148.364 115.624C149.367 115.753 150.396 115.624 151.501 115.212C149.984 114.595 148.441 114.003 146.95 113.308C142.347 111.172 137.745 109.062 133.219 106.822C122.574 101.572 111.389 100.388 99.8186 102.241C90.6134 103.734 81.7425 106.514 73.3088 110.528C70.0432 112.073 67.0863 114.132 64.5664 116.808C62.3809 119.124 61.6352 121.363 62.6894 123.294C64.0265 125.764 66.2892 126.562 68.989 126.433C74.2858 126.176 79.377 124.786 84.2881 122.985C92.1819 120.102 99.9471 120.617 107.738 123.165C111.004 124.22 114.243 125.352 117.458 126.511C120.954 127.746 124.503 128.003 128.128 127.36C133.914 126.33 139.519 124.709 144.739 121.955C147.824 120.334 150.961 118.841 154.587 117.04C153.07 116.885 152.093 116.731 151.09 116.679C142.836 116.268 134.659 115.367 126.56 113.745C116.969 111.841 107.352 112.124 97.8644 114.132C91.1534 115.547 84.5709 117.529 77.9371 119.253C76.8828 119.536 75.8029 119.768 74.7487 120.025C74.723 119.845 74.6715 119.665 74.6458 119.459C87.5536 114.543 100.744 111.017 114.732 111.017ZM232.728 190.439C229.436 188.766 226.274 186.862 222.931 185.318C220.463 184.159 217.866 183.156 215.217 182.538C208.918 181.097 202.541 180.737 196.061 180.814C190.585 180.865 185.108 180.042 179.657 179.527C178.859 179.45 178.088 178.935 177.368 178.24C177.96 178.266 178.551 178.266 179.142 178.292C184.979 178.652 190.79 179.321 196.627 179.27C201.538 179.218 206.398 179.501 211.232 180.145C217.249 180.968 222.828 183.001 228.048 186.218C231.211 188.174 234.528 189.976 238.487 190.877C235.17 188.123 231.931 185.729 229.051 182.976C225.734 179.81 222.108 177.108 218.174 174.817C214.035 172.398 209.561 170.828 204.881 170.21C197.656 169.284 190.379 168.615 183.102 168.177C179.014 167.92 174.848 168.229 170.76 168.512C168.986 168.641 167.212 169.181 165.54 169.773C163.175 170.596 162.352 173.35 164.306 175.358C166.492 177.597 169.243 178.678 171.994 179.861C174.206 180.788 176.468 181.56 178.628 182.589C181.636 184.005 183.873 186.373 186.059 188.843C189.042 192.215 192.359 195.097 196.627 196.822C199.713 198.057 202.927 198.52 206.192 198.649C215.886 198.983 225.245 196.924 234.528 194.402C235.53 194.119 236.482 193.759 237.459 193.399C237.69 193.321 237.87 193.116 238.256 192.832C236.276 192.035 234.45 191.34 232.728 190.439ZM91.1791 78.5385C85.2652 78.7959 79.3255 79.0533 73.4373 79.7224C67.112 80.443 60.8638 81.6783 54.5642 82.5276C50.2444 83.0938 45.8733 83.171 41.5535 82.1931C52.7386 82.6821 63.5122 80.0312 74.4144 78.2812C80.7912 77.2517 87.2451 76.9944 93.699 77.3032C94.7275 77.3547 95.7303 77.3804 96.7331 77.4319C96.7845 77.0973 96.8616 76.84 96.8102 76.8142C92.4133 73.9832 88.6593 70.2515 83.7996 68.0639C79.9684 66.3396 76.0857 65.5418 72.0488 66.8286C69.2719 67.7037 66.5206 68.7588 63.9236 70.0714C55.567 74.3693 46.8246 76.6598 37.3367 76.1451C33.4283 75.9392 29.4428 76.5054 25.5088 76.84C23.4261 77.0201 21.5233 77.8694 19.9806 79.3621C18.4378 80.8548 18.4121 81.9872 19.8263 83.5828C21.5747 85.4873 23.8118 86.6197 26.1773 87.4175C31.0627 89.0389 35.9739 90.6602 40.9621 91.9728C45.7447 93.2338 50.6044 94.2633 55.6184 93.9802C60.8124 93.6713 65.8521 92.5904 70.7118 90.7632C74.723 89.2447 78.657 87.4947 82.6425 85.8733C87.1936 84.0461 91.7448 82.2703 96.2959 80.4687C96.6816 80.3143 97.0673 80.1342 97.453 79.9798C97.453 79.7224 97.453 79.4908 97.453 79.2334C95.3446 78.9503 93.2618 78.4356 91.1791 78.5385ZM232.702 158.526C231.673 154.1 230.234 149.673 230.002 145.195C229.488 135.647 227.585 126.485 224.5 117.503C223.343 114.106 222.52 110.58 221.543 107.131C221.723 107.054 221.903 106.977 222.057 106.925C222.314 107.492 222.597 108.032 222.803 108.598C224.268 112.819 225.734 117.04 227.148 121.286C229.668 128.93 231.056 136.728 231.313 144.809C231.468 149.879 232.522 154.872 234.502 159.581C234.733 160.122 235.016 160.611 235.659 161.1C235.89 157.806 236.147 154.511 236.353 151.217C236.43 150.033 236.327 148.798 236.456 147.614C237.176 140.871 236.379 134.257 235.505 127.566C234.27 118.069 231.596 109.087 227.148 100.646C224.114 94.881 220.951 89.1418 216.143 84.5608C214.523 83.0166 214.06 82.8879 211.695 83.5571C211.695 85.024 211.515 86.6454 211.772 88.1896C212.363 91.9985 213.083 95.8074 213.855 99.5906C214.343 101.958 214.96 104.275 215.654 106.591C217.84 113.951 218.483 121.415 217.531 129.033C216.837 134.386 217.557 139.61 219.049 144.809C219.923 147.872 221.208 150.625 223.24 152.942C226.737 156.982 230.439 160.894 234.065 164.832C234.168 164.935 234.373 164.935 234.913 165.115C234.065 162.721 233.216 160.662 232.702 158.526ZM81.9997 47.3979C78.7599 44.8757 75.2886 42.611 71.9717 40.166C62.7923 33.346 54.1528 25.9597 47.2361 16.7462C46.6189 15.9226 46.0533 15.0476 45.5133 14.1983C45.3847 14.0182 45.3847 13.7608 45.4619 13.9924C49.2674 17.8786 53.1757 22.1508 57.3926 26.1141C61.1466 29.6143 65.1064 32.8827 69.169 36.0483C73.9002 39.7285 78.9398 43.0742 83.671 46.7545C86.1394 48.6847 88.2736 51.0781 90.562 53.2657C90.5877 53.2142 90.7677 53.0598 90.742 52.9826C87.7336 41.5558 82.1539 31.7761 72.9488 24.081C65.235 17.6212 57.3669 11.3931 48.8045 6.11721C46.9789 4.98482 45.0248 4.08405 43.0963 3.15755C42.3249 2.79725 41.4764 2.59136 40.6279 2.43695C36.7195 1.6906 34.6368 3.74949 35.8453 7.53269C36.7195 10.2865 37.928 13.0659 39.6251 15.3822C43.7905 21.0441 48.0331 26.7061 52.79 31.8533C56.7755 36.1769 61.3523 40.0374 66.0321 43.5889C68.629 45.5706 71.946 46.6001 75.0058 47.9641C78.117 49.3796 81.2797 50.6664 84.4167 52.0046C85.5994 52.5194 86.7565 53.0598 87.9136 53.5745C88.0164 53.3944 88.1193 53.24 88.2479 53.0598C86.1651 51.1554 84.211 49.0965 81.9997 47.3979ZM128.025 78.5128C124.477 71.6927 121.674 64.5639 120.234 56.9974C118.589 48.4788 115.709 40.4234 111.518 32.8313C110.567 31.1069 109.821 29.3054 108.972 27.5554C109.127 27.4781 109.281 27.3752 109.435 27.298C109.975 28.173 110.489 29.0738 111.055 29.9488C116.403 38.2101 119.977 47.1405 121.7 56.8688C122.831 63.2513 124.888 69.3508 127.665 75.2186C128.103 76.1451 128.565 77.0201 129.465 77.8951C129.517 77.3804 129.62 76.8657 129.594 76.351C129.414 72.7479 129.054 69.1449 129.003 65.5418C128.823 53.7032 126.303 42.5338 119.977 32.368C117.02 27.6326 114.269 22.7427 110.361 18.7021C109.641 17.9815 108.844 17.2867 107.995 16.7719C105.707 15.3822 103.316 16.2057 102.39 18.7794C101.953 19.9632 101.67 21.2758 101.696 22.5368C101.721 24.9303 101.85 27.3495 102.21 29.7172C102.981 34.9159 103.727 40.1146 104.807 45.2361C106.864 55.1702 110.926 64.2035 117.997 71.6413C120.594 74.3693 123.577 76.7113 126.38 79.2334C127.203 79.954 128.051 80.6489 128.9 81.3438C129.003 81.2408 129.131 81.1636 129.234 81.0607C128.823 80.1856 128.463 79.3364 128.025 78.5128ZM35.0739 40.9896C40.9107 43.3831 46.9018 45.4419 52.8414 47.6295C52.9443 47.5008 53.0471 47.3464 53.1243 47.2177C52.8157 46.7802 52.5586 46.2912 52.1986 45.8795C50.1159 43.4088 48.136 40.8609 45.899 38.5447C40.4993 32.9857 33.9426 29.0995 26.8716 26.0627C24.8917 25.2134 22.9375 24.3641 20.8805 23.7207C16.9722 22.5111 13.0638 21.3787 9.10408 20.3493C7.81844 20.0147 6.35281 19.9632 5.04146 20.1691C2.80446 20.5037 1.72452 22.0993 2.31592 24.2611C2.70161 25.7281 3.34442 27.2723 4.2958 28.3789C7.09848 31.5959 9.92688 34.8901 13.141 37.6696C18.0264 41.9161 23.5289 45.2618 29.7 47.3979C35.1511 49.2766 40.7307 49.8428 46.439 49.7141C48.7274 49.6627 51.0158 49.6112 53.3557 49.0707C47.2361 46.703 41.0907 44.4382 35.0225 41.9418C29.0057 39.4712 23.1175 36.6402 17.4093 33.0629C23.5032 35.8166 29.2114 38.5704 35.0739 40.9896ZM255.663 169.824C254.095 166.324 252.681 162.67 251.755 158.964C250.032 151.989 247.564 145.324 244.17 139.018C243.193 137.217 242.37 135.338 241.856 133.253C242.19 133.639 242.576 134 242.858 134.437C247.41 141.798 251.292 149.416 252.629 158.115C253.246 162.052 255.303 165.501 256.692 169.181C257.258 170.699 258.055 172.166 258.518 173.711C259.16 175.821 259.572 178.008 260.163 180.453C260.446 179.759 260.78 179.167 260.909 178.523C261.68 174.457 261.757 170.442 261.166 166.273C259.186 152.015 252.784 139.636 245.275 127.694C243.733 125.25 241.701 123.088 239.773 120.926C239.079 120.18 237.973 119.793 237.227 119.356C235.787 120.102 235.942 121.055 236.147 122.007C237.485 128.415 238.102 134.901 238.667 141.438C239.104 146.276 240.647 150.96 242.473 155.541C245.095 162.181 248.824 168.074 252.912 173.839C254.481 176.053 255.638 178.549 257 180.917C257.412 181.637 257.875 182.358 258.338 183.078C258.646 178.369 257.54 174.045 255.663 169.824ZM251.909 175.692C247.564 169.155 242.961 162.696 240.699 154.975C240.159 153.096 239.284 151.32 238.333 148.952C238.102 149.982 237.87 150.522 237.844 151.089C237.639 155.464 237.433 159.839 237.33 164.214C237.305 165.269 237.536 166.427 237.922 167.405C238.41 168.666 239.233 169.824 239.85 171.06C241.521 174.508 243.656 177.52 246.767 179.861C252.141 183.902 256.743 188.766 260.883 194.042C261.14 194.351 261.449 194.634 261.706 194.943C259.88 187.685 255.895 181.714 251.909 175.692ZM43.7134 74.4722C48.7531 74.2921 53.5357 72.8509 58.1383 70.9464C62.458 69.1706 66.7006 67.1632 71.3546 65.0786C70.3775 64.9499 69.7347 64.7183 69.1176 64.7955C65.7235 65.1815 62.2266 65.2587 58.9353 66.108C50.0645 68.3985 41.2707 71.0236 32.4255 73.5457C31.8598 73.7002 31.3199 73.9833 30.7799 74.1891C30.8056 74.3178 30.8313 74.4465 30.8828 74.5752C35.1511 74.5495 39.4451 74.6267 43.7134 74.4722ZM79.2227 126.228C91.5391 127.025 104.19 127.823 116.84 128.621C116.866 128.389 116.918 128.183 116.943 127.952C104.498 122.599 91.9505 119.485 79.2227 126.228ZM211.335 98.2524C211.695 107.44 212.029 116.654 212.44 125.841C212.517 127.823 212.877 129.779 213.16 131.735C213.546 134.463 214.266 137.088 216.297 139.636C216.117 138.169 215.834 137.062 215.86 135.93C215.886 133.099 215.912 130.242 216.169 127.437C216.709 121.544 216.4 115.753 214.934 110.014C213.906 105.922 212.903 101.855 211.772 97.3259C211.463 97.9693 211.335 98.1237 211.335 98.2524ZM293.564 232.337C286.596 225.106 279.396 218.08 272.608 210.719C267.208 204.851 262.272 198.546 257.078 192.498C254.866 189.924 252.475 187.479 250.161 184.957C250.032 185.086 249.878 185.215 249.749 185.343C250.521 186.244 251.318 187.119 252.064 188.02C257.232 194.196 262.349 200.425 267.62 206.55C274.228 214.219 280.913 221.837 287.624 229.403C289.501 231.514 291.558 233.495 293.615 235.4C294.515 236.224 295.698 236.79 296.727 237.459C296.907 237.253 297.087 237.047 297.267 236.841C296.032 235.323 294.901 233.727 293.564 232.337ZM169.526 141.746C168.652 142.029 167.752 142.57 167.186 143.265C165.412 145.452 163.535 147.614 162.146 150.033C160.346 153.225 161.478 157.137 164.743 159.53C164.666 158.398 164.589 157.471 164.538 156.57C164.178 150.342 166.492 146.559 172.38 144.5C174.771 143.651 177.394 143.496 179.914 143.11C180.737 142.982 181.585 143.033 182.434 143.033C178.242 140.923 173.948 140.305 169.526 141.746ZM286.004 189.101C282.508 190.568 279.011 192.009 276.542 194.994C274.537 197.439 274.691 201.866 276.928 205.006C278.188 198.469 283.639 194.763 286.004 189.101ZM148.159 77.2517C145.793 79.3106 144.842 81.9614 145.227 85.0755C145.562 87.7263 146.41 90.1712 148.133 92.3846C147.901 88.833 148.287 85.3843 149.547 82.1416C150.807 78.9246 152.478 75.862 154.072 72.4906C152.015 74.1634 150.036 75.6304 148.159 77.2517ZM169.063 180.402C169.063 180.428 169.089 180.582 169.166 180.659C174.36 184.288 179.579 187.917 184.799 191.52C185.648 192.112 186.522 192.627 187.859 193.502C183.051 186.27 176.802 182.203 169.063 180.402Z" fill="#7B7A79" fill-opacity="0.5"/>
</svg>
