<svg xmlns="http://www.w3.org/2000/svg" width="400" height="36.211"><path d="M27.751 1.616c-18.012 5.949-13.84 32.732 5.091 32.683 17.964-.046 23.435-23.895 7.303-31.836C36.597.716 31.526.37 27.751 1.616m75.79 0C85.528 7.565 89.7 34.348 108.632 34.299c17.964-.046 23.435-23.895 7.303-31.836-3.548-1.747-8.62-2.093-12.394-.847m98.526 0c-18.012 5.949-13.84 32.732 5.091 32.683 17.964-.046 23.435-23.895 7.303-31.836-3.548-1.747-8.62-2.093-12.394-.847m-190.378.465C-5.066 7.437-3.006 31.288 14.438 33.903l1.983.298v-1.252c0-1.187-.109-1.266-2.076-1.499C-.881 29.647-.977 6.013 14.232 3.854c1.761-.25 1.993-.408 2.112-1.436.165-1.43-.977-1.513-4.655-.337m42.627 15.603v16.421h2.492l.122-3.434.123-3.435 4.082 3.435c3.819 3.212 4.209 3.434 6.025 3.434h1.943l-4.131-3.407c-4.916-4.055-4.796-3.838-2.659-4.802 12.031-5.425 7.4-24.633-5.94-24.633h-2.057v16.421m19.789-.056v16.477h2.527v-3.158c0-2.857.078-3.158.826-3.158 2.042 0 5.731-1.871 7.833-3.972 8.15-8.15 3.175-21.64-8.284-22.459l-2.902-.208v16.478m64 .056v16.421h2.029c12.935 0 17.613-18.119 6.027-23.343-1.578-.712-1.652-.822-1.118-1.657 2.256-3.525-.266-7.842-4.58-7.842h-2.358v16.421m18.948-12.421c0 3.793-.047 4-.892 4-.718 0-.842.183-.637.948.14.521.257 1.089.26 1.263.003.173.29.315.637.315.546 0 .632 1.521.632 11.158v11.158h8.898l-.134-1.158c-.13-1.131-.203-1.16-3.185-1.281l-3.053-.124V11.789h6.693l-.44-1.263c-.432-1.239-.496-1.263-3.347-1.263h-2.906V3.368h2.947c2.863 0 2.948-.03 2.948-1.052V1.263h-8.421v4m13.052 12.421v16.421h8.421v-2.526h-5.894V1.263h-2.527v16.421m11.369 0v16.421h8.421v-2.526H184V1.263h-2.526v16.421M38.316 4.279c14.727 6.322 10.676 27.489-5.263 27.506-6.257.007-10.013-2.163-12.872-7.437C13.9 12.763 26.248-.902 38.316 4.279m75.789 0c14.727 6.322 10.677 27.489-5.263 27.506-6.257.007-10.012-2.163-12.872-7.437-6.281-11.585 6.067-25.25 18.135-20.069m98.527 0c14.726 6.322 10.676 27.489-5.264 27.506-6.256.007-10.012-2.163-12.871-7.437-6.281-11.585 6.067-25.25 18.135-20.069m-151.579.376c8.961 4.527 6.571 20.187-3.081 20.187h-1.13V3.389l1.369.261c.752.144 2.031.596 2.842 1.005m20.149.164c8.852 4.649 6.06 20.398-3.623 20.44l-.947.004V3.458l1.728.388c.951.214 2.23.652 2.842.973m61.268-.578c1.357 1.068 1.478 2.968.267 4.18-1.616 1.616-2.105 1.127-2.105-2.105 0-3.2.167-3.389 1.838-2.075m1.169 8.037c9.39 2.814 8.446 17.649-1.218 19.134l-1.789.275v-9.949c0-11.093-.213-10.424 3.007-9.46" fill="#FFFFFF" fill-rule="evenodd"/></svg>